<svg width="18" height="18" viewBox="0 0 18 18" fill="none" xmlns="http://www.w3.org/2000/svg">
<path d="M9.94961 9.0001L17.1934 1.75635C17.4605 1.48916 17.4605 1.07354 17.1934 0.806348C16.9262 0.53916 16.5105 0.53916 16.2434 0.806348L8.99961 8.0501L1.75586 0.806348C1.48867 0.53916 1.07305 0.53916 0.805859 0.806348C0.538672 1.07354 0.538672 1.48916 0.805859 1.75635L8.04961 9.0001L0.805859 16.2438C0.538672 16.511 0.538672 16.9267 0.805859 17.1938C0.924609 17.3126 1.10273 17.4017 1.28086 17.4017C1.45898 17.4017 1.63711 17.3423 1.75586 17.1938L8.99961 9.9501L16.2434 17.1938C16.3621 17.3126 16.5402 17.4017 16.7184 17.4017C16.8965 17.4017 17.0746 17.3423 17.1934 17.1938C17.4605 16.9267 17.4605 16.511 17.1934 16.2438L9.94961 9.0001Z" fill="white"/>
</svg>
